<?xml version="1.0" encoding="utf-8"?>
<svg xmlns="http://www.w3.org/2000/svg" viewBox="0 0 500 500" xmlns:bx="https://boxy-svg.com" width="500px" height="500px"><defs><bx:export><bx:file format="svg"/></bx:export></defs><g id="Layer_1"><path class="cls-1" d="M 176.769 174.829 L 161.902 188.103 L 128.549 157.714 L 98.103 184.867 L 91.74 190.517 L 81.811 199.403 L 81.973 199.569 L 52.407 226.944 L 52.407 219.1 C 52.407 219.1 52.242 199.295 52.407 199.184 L 65.901 187.117 L 67.163 186.021 L 113.902 144.436 L 115.492 142.955 L 128.823 131.162 L 130.304 129.791 L 161.518 101.977 L 176.274 115.363 L 145.172 143.066 L 143.471 144.547 L 176.769 174.829 Z" style="fill: rgb(30, 30, 30); stroke-width: 1;"/><path class="cls-1" d="M 275.349 139.883 L 268.71 145.81 L 301.459 175.541 L 286.538 188.707 L 253.843 158.973 C 217.143 191.175 180.664 223.653 144.402 256.402 L 177.262 286.299 L 162.395 299.465 L 129.646 269.676 L 95.085 300.397 L 80.494 287.011 L 114.89 256.291 L 80.272 224.75 L 94.812 211.253 L 129.811 243.127 L 164.096 212.461 L 176.55 201.381 L 191.414 188.103 L 207.655 173.732 L 239.196 145.644 L 191.306 102.086 L 176.55 88.703 L 178.251 87.11 C 178.251 87.11 179.237 86.233 180.718 84.916 C 180.718 84.862 180.773 84.862 180.827 84.805 C 184.559 81.46 191.252 75.48 191.306 75.372 L 206.062 88.811 L 243.968 123.372 L 253.954 132.367 L 302.283 89.304 L 320.387 72.899 L 335.032 86.284 L 317.039 102.581 L 275.349 139.883 Z" style="fill: rgb(30, 30, 30); stroke-width: 1;"/><path class="cls-1" d="M 391.756 257.772 L 426.26 289.097 L 411.45 302.317 L 376.889 270.939 L 329.108 313.509 L 314.352 326.675 L 286.319 351.634 L 267.448 368.367 L 274.634 374.895 L 329.712 424.377 L 314.626 437.871 L 299.815 424.596 L 252.692 381.642 L 236.344 396.289 L 222.08 408.96 L 221.587 409.345 L 204.965 424.103 L 190.209 437.432 C 190.209 437.432 175.561 424.103 175.453 423.992 L 190.317 410.718 L 193.665 407.755 L 237.936 368.256 L 206.062 339.237 L 221.094 326.071 L 252.857 354.982 L 299.596 313.235 L 314.46 300.069 L 324.336 291.347 L 336.898 280.156 L 362.242 257.499 L 330.37 228.48 L 345.126 215.422 L 377 244.333 L 412.382 212.846 L 427.084 226.34 L 391.756 257.772 Z" style="fill: rgb(30, 30, 30); stroke-width: 1;"/><path class="cls-1" d="M 454.624 286.957 L 454.513 305.992 L 454.513 313.619 L 447.601 319.378 L 443.541 322.945 L 443.213 323.33 C 443.213 323.33 438.495 327.005 438.768 327.279 L 390.987 369.849 L 376.231 383.012 L 343.645 412.034 L 329 398.648 L 361.583 369.629 L 329.219 340.225 L 344.029 327.005 L 376.396 356.463 L 391.702 342.804 L 391.865 342.967 L 454.624 286.957 Z" style="fill: rgb(30, 30, 30); stroke-width: 1;"/><path class="cls-1" d="M 455.006 201.543 L 454.898 221.348 L 454.898 228.369 L 425.329 201.27 L 409.091 186.403 L 400.971 178.997 L 386.215 165.723 L 378.975 159.084 C 378.975 159.084 371.678 165.447 371.678 165.612 L 330.59 202.147 L 315.833 215.313 L 284.344 243.347 L 268.106 257.883 L 299.704 286.683 L 284.84 299.849 L 253.185 271.049 L 244.737 278.674 L 235.466 286.794 L 220.599 300.069 L 206.447 312.739 L 191.58 326.071 L 157.349 356.463 L 143.909 368.475 L 175.672 397.441 L 160.914 410.718 L 129.042 381.807 L 114.395 368.367 L 67.163 325.413 L 52.407 312.027 C 52.407 312.027 52.9 311.534 52.735 311.423 L 52.735 303.798 L 52.626 284.982 L 82.084 311.973 L 81.919 312.138 L 129.316 355.201 L 154.001 333.202 L 158.227 329.473 L 176.932 312.739 L 191.799 299.465 L 219.228 274.999 L 238.537 257.772 L 206.338 228.369 L 221.094 215.202 L 253.459 244.606 L 284.564 216.795 L 285.167 216.302 L 301.186 202.039 L 315.942 188.873 L 346.223 161.882 L 364.327 145.81 L 338.707 122.384 L 331.687 116.021 L 346.608 102.855 L 350.394 106.257 L 379.194 132.478 L 393.842 145.81 L 397.899 149.485 L 412.658 162.76 L 440.25 187.995 C 440.25 187.995 455.006 201.381 455.006 201.543 Z" style="fill: rgb(30, 30, 30); stroke-width: 1;"/><polygon class="cls-1" points="305.45 57.516 299.913 62.438 290.438 70.803 277.886 59.361 263.122 45.947 257.338 40.656 223.624 70.558 208.857 57.144 242.572 27.244 245.158 24.906 257.462 13.957 272.226 27.368 274.812 29.707 289.576 43.118 305.45 57.516" style="fill: rgb(30, 30, 30); stroke-width: 1;"/><polygon class="cls-1" points="302.249 446.345 269.766 475.384 255 488.551 240.236 475.137 207.874 445.73 222.638 432.44 255.124 461.97 287.607 433.057 302.249 446.345" style="fill: rgb(30, 30, 30); stroke-width: 1;"/><line class="cls-1" x1="317.509" y1="432.809" x2="317.14" y2="433.178" style="fill: rgb(30, 30, 30); stroke-width: 1;"/><polygon class="cls-1" points="446.094 318.253 441.664 322.189 441.417 321.944 446.094 318.253" style="fill: rgb(30, 30, 30); stroke-width: 1;"/></g></svg>