<?xml version="1.0" encoding="utf-8"?>
<svg xmlns="http://www.w3.org/2000/svg" viewBox="0 0 500 500" width="500" height="500" role="img" aria-label="Lattix logo mark">
	<rect width="500" height="500" rx="72" fill="#ffffff"/>
	<g fill="#1e1e1e">
		<path d="M176.769 174.829 161.902 188.103 128.549 157.714 98.103 184.867 91.74 190.517 81.811 199.403 81.973 199.569 52.407 226.944V219.1s-.165-19.805 0-19.916l13.494-12.067 1.262-1.096 46.739-41.585 1.59-1.481 13.331-11.793 1.481-1.371 31.214-27.814 14.756 13.386-31.102 27.703-1.701 1.481 33.298 30.282Z"/>
		<path d="m275.349 139.883-6.639 5.927 32.749 29.731-14.921 13.166-32.695-29.734c-36.7 32.202-73.179 64.68-109.441 97.429l32.86 29.897-14.867 13.166-32.749-29.789-34.561 30.721-14.591-13.386 34.396-30.72-34.618-31.541 14.54-13.497 34.999 31.874 34.285-30.666 12.454-11.08 14.864-13.278 16.241-14.371 31.541-28.088-47.89-43.558-14.756-13.383 1.701-1.593s.986-.877 2.467-2.194c0-.054.055-.054.109-.111 3.732-3.345 10.425-9.325 10.479-9.433l14.756 13.439 37.906 34.561 9.986 8.995 48.329-43.063 18.104-16.405 14.645 13.385-17.993 16.297-41.69 37.302Z"/>
		<path d="m391.756 257.772 34.504 31.325-14.81 13.22-34.561-31.378-47.781 42.57-14.756 13.166-28.033 24.959-18.871 16.733 7.186 6.528 55.078 49.482-15.086 13.494-14.811-13.275-47.123-42.954-16.348 14.647-14.264 12.671-.493.385-16.622 14.758-14.756 13.329s-14.648-13.329-14.756-13.44l14.864-13.274 3.348-2.963 44.271-39.499-31.874-29.019 15.032-13.166 31.763 28.911 46.739-41.747 14.864-13.166 9.876-8.722 12.562-11.191 25.344-22.657-31.872-29.019 14.756-13.058L377 244.333l35.382-31.487 14.702 13.494-35.328 31.432Z"/>
		<path d="m454.624 286.957-.111 19.035v7.627l-6.912 5.759-4.06 3.567-.328.385s-4.718 3.675-4.445 3.949l-47.781 42.57-14.756 13.163-32.586 29.022L329 398.648l32.583-29.019-32.364-29.404 14.81-13.22 32.367 29.458 15.306-13.659.163.163 62.759-56.01Z"/>
		<path d="m455.006 201.543-.108 19.805v7.021l-29.569-27.099-16.238-14.867-8.12-7.406-14.756-13.274-7.24-6.639s-7.297 6.363-7.297 6.528l-41.088 36.535-14.757 13.166-31.489 28.034-16.238 14.536 31.598 28.8-14.864 13.166-31.655-28.8-8.448 7.625-9.271 8.12-14.867 13.275-14.152 12.67-14.867 13.332-34.231 30.392-13.44 12.012 31.763 28.966-14.758 13.277-31.872-28.911-14.647-13.44-47.232-42.954-14.756-13.386s.493-.493.328-.604v-7.625l-.109-18.816 29.458 26.991-.165.165 47.397 43.063 24.685-21.999 4.226-3.729 18.705-16.734 14.867-13.274 27.429-24.466 19.309-17.227-32.199-29.403 14.756-13.167 32.365 29.404 31.105-27.811.603-.493 16.019-14.263 14.756-13.166 30.281-26.991 18.104-16.072-25.62-23.426-7.02-6.363 14.921-13.166 3.786 3.402 28.8 26.221 14.648 13.332 4.057 3.675 14.759 13.275 27.592 25.235s14.756 13.386 14.756 13.548Z"/>
		<polygon points="305.45 57.516 299.913 62.438 290.438 70.803 277.886 59.361 263.122 45.947 257.338 40.656 223.624 70.558 208.857 57.144 242.572 27.244 245.158 24.906 257.462 13.957 272.226 27.368 274.812 29.707 289.576 43.118 305.45 57.516"/>
		<polygon points="302.249 446.345 269.766 475.384 255 488.551 240.236 475.137 207.874 445.73 222.638 432.44 255.124 461.97 287.607 433.057 302.249 446.345"/>
	</g>
</svg>
